HIERARCHY
ROOT Hips
{
	OFFSET 0.000000 0.000000 0.000000
	CHANNELS 6 Xposition Yposition Zposition Zrotation Yrotation Xrotation 
	JOINT LeftUpLeg_virtual
	{
		OFFSET 0.000000 0.000000 0.000000
		CHANNELS 3 Zrotation Yrotation Xrotation
		JOINT LeftUpLeg
		{
			OFFSET 8.479694 -4.795517 -0.379053
			CHANNELS 3 Zrotation Yrotation Xrotation
			JOINT LeftLeg
			{
				OFFSET 0.485052 -32.551468 0.112863
				CHANNELS 3 Zrotation Yrotation Xrotation
				JOINT LeftFoot
				{
					OFFSET 0.438033 -32.635670 -3.012641
					CHANNELS 3 Zrotation Yrotation Xrotation
					JOINT LeftToeBase
					{
						OFFSET 0.970169 -13.225353 11.864223
						CHANNELS 3 Zrotation Yrotation Xrotation
						End Site
						{
							OFFSET 0.000000 0.000000 0.000000
						}
					}
				}
			}
		}
	}
	JOINT RightUpLeg_virtual
	{
		OFFSET 0.000000 0.000000 0.000000
		CHANNELS 3 Zrotation Yrotation Xrotation
		JOINT RightUpLeg
		{
			OFFSET -8.479694 -4.795517 -0.379053
			CHANNELS 3 Zrotation Yrotation Xrotation
			JOINT RightLeg
			{
				OFFSET -0.484100 -32.551483 0.112903
				CHANNELS 3 Zrotation Yrotation Xrotation
				JOINT RightFoot
				{
					OFFSET -0.438985 -32.635651 -3.012681
					CHANNELS 3 Zrotation Yrotation Xrotation
					JOINT RightToeBase
					{
						OFFSET -0.970169 -13.225354 11.864223
						CHANNELS 3 Zrotation Yrotation Xrotation
						End Site
						{
							OFFSET 0.000000 0.000000 0.000000
						}
					}
				}
			}
		}
	}
	JOINT Spine_virtual
	{
		OFFSET 0.000000 0.000000 0.000000
		CHANNELS 3 Zrotation Yrotation Xrotation
		JOINT Spine
		{
			OFFSET 0.000000 7.722015 1.166203
			CHANNELS 3 Zrotation Yrotation Xrotation
			JOINT Spine1
			{
				OFFSET 0.000000 12.024086 0.248766
				CHANNELS 3 Zrotation Yrotation Xrotation
				JOINT Spine2
				{
					OFFSET -0.000000 11.503036 -0.491240
					CHANNELS 3 Zrotation Yrotation Xrotation
					JOINT Neck_virtual
					{
						OFFSET 0.000000 0.000000 0.000000
						CHANNELS 3 Zrotation Yrotation Xrotation
						JOINT Neck
						{
							OFFSET 0.000000 18.430687 -3.123054
							CHANNELS 3 Zrotation Yrotation Xrotation
							JOINT Head
							{
								OFFSET -0.000000 9.051071 1.034021
								CHANNELS 3 Zrotation Yrotation Xrotation
								End Site
								{
									OFFSET 0.000000 0.000000 0.000000
								}
							}
						}
					}
					JOINT LeftShoulder_virtual
					{
						OFFSET 0.000000 0.000000 0.000000
						CHANNELS 3 Zrotation Yrotation Xrotation
						JOINT LeftShoulder
						{
							OFFSET 6.197824 13.665230 -4.064723
							CHANNELS 3 Zrotation Yrotation Xrotation
							JOINT LeftArm
							{
								OFFSET 7.778132 -0.187073 -1.709282
								CHANNELS 3 Zrotation Yrotation Xrotation
								JOINT LeftForeArm
								{
									OFFSET 21.954697 0.000000 -2.041093
									CHANNELS 3 Zrotation Yrotation Xrotation
									JOINT LeftHand
									{
										OFFSET 22.992908 0.000000 -0.870901
										CHANNELS 3 Zrotation Yrotation Xrotation
										End Site
										{
											OFFSET 0.000000 0.000000 0.000000
										}
									}
								}
							}
						}
					}
					JOINT RightShoulder_virtual
					{
						OFFSET 0.000000 0.000000 0.000000
						CHANNELS 3 Zrotation Yrotation Xrotation
						JOINT RightShoulder
						{
							OFFSET -6.197824 13.665230 -4.064723
							CHANNELS 3 Zrotation Yrotation Xrotation
							JOINT RightArm
							{
								OFFSET -7.778132 -0.187073 -1.709282
								CHANNELS 3 Zrotation Yrotation Xrotation
								JOINT RightForeArm
								{
									OFFSET -21.954697 0.000000 -2.041093
									CHANNELS 3 Zrotation Yrotation Xrotation
									JOINT RightHand
									{
										OFFSET -22.992908 0.000000 -0.870901
										CHANNELS 3 Zrotation Yrotation Xrotation
										End Site
										{
											OFFSET 0.000000 0.000000 0.000000
										}
									}
								}
							}
						}
					}
				}
			}
		}
	}
}
MOTION
Frames: 8
Frame Time: 0.033333
-9.499959 81.045372 -50.143085 179.913398 4.754093 -179.945637 -4.383944 -0.619115 9.869247 -2.216563 2.491710 -23.695651 11.647115 5.663397 33.165790 -0.797519 -8.516110 -10.804637 0.000000 0.000000 0.000000 -1.937101 -0.551222 10.517869 -4.318117 0.817514 -20.693921 -2.275546 4.131413 27.696578 12.210594 5.272532 -8.684111 0.000000 0.000000 0.000000 2.302591 1.979040 -3.212504 -5.985274 1.721842 -1.088633 0.250626 -2.969732 5.476402 -0.020242 0.026399 0.030410 0.373901 -2.147238 6.471308 -0.980050 0.713945 -4.880711 0.000000 0.000000 0.000000 1.902730 -1.472416 3.519441 -0.314048 7.041055 -6.356322 1.750670 -8.595934 -55.203177 -0.703077 -38.857861 -4.402160 0.000000 0.000000 0.000000 -2.056781 -0.269882 2.958049 22.824073 -8.117320 -9.242606 1.265880 -0.572236 -57.287850 0.589739 22.072914 6.237718 0.000000 0.000000 0.000000 
-9.491403 81.035454 -50.253101 -179.979050 4.682350 -179.946607 -4.347386 -0.706505 9.972821 -2.106344 2.350021 -23.622460 11.925130 5.747839 33.366997 -0.471954 -8.101357 -10.795349 0.000000 0.000000 0.000000 -1.777856 -0.580015 10.609165 -4.423102 0.850770 -20.619031 -2.241994 4.250275 27.895123 12.455188 5.524148 -8.602954 0.000000 0.000000 0.000000 2.348094 1.979804 -3.184728 -5.929412 1.738973 -1.061126 0.286021 -2.939542 5.488907 0.008572 0.053702 0.032715 0.279911 -2.254302 6.504012 -1.015429 0.730737 -4.903720 0.000000 0.000000 0.000000 1.862616 -1.509340 3.564606 -0.420975 7.001150 -6.254732 1.476243 -8.311551 -55.126303 -0.675711 -38.895513 -4.418570 0.000000 0.000000 0.000000 -2.142503 -0.326761 2.949075 22.924941 -8.177522 -9.157268 1.572957 -0.645816 -56.879893 0.565356 22.142071 6.192065 0.000000 0.000000 0.000000 
-9.485116 81.029655 -50.365307 179.902279 4.532606 -179.905543 -4.432549 -0.772357 9.994407 -2.104457 2.314242 -23.668156 11.891891 5.808736 33.433001 -0.500758 -8.149722 -10.819878 0.000000 0.000000 0.000000 -1.890635 -0.540082 10.624109 -4.413439 0.734204 -20.635000 -2.250257 4.219761 27.997582 12.391432 5.482654 -8.682821 0.000000 0.000000 0.000000 2.316836 1.943783 -3.193385 -5.962697 1.695421 -1.081746 0.194904 -2.977626 5.511171 0.063892 0.001064 0.044351 0.300154 -2.199481 6.595237 -1.047638 0.728964 -4.776370 0.000000 0.000000 0.000000 1.873531 -1.408851 3.566281 -0.553626 7.169199 -6.327868 0.650534 -7.917003 -54.695188 -0.569639 -39.145764 -4.448744 0.000000 0.000000 0.000000 -2.131716 -0.228986 3.060260 23.014550 -8.199224 -9.258645 1.877463 -0.600321 -56.376101 0.691457 22.275578 6.279263 0.000000 0.000000 0.000000 
-9.477840 81.017273 -50.469994 -179.971427 4.275456 -179.955868 -4.370612 -0.757453 10.069162 -2.013172 2.354880 -23.694305 11.847421 5.694415 33.522821 -0.568363 -8.267683 -10.913864 0.000000 0.000000 0.000000 -1.720974 -0.596580 10.722494 -4.438233 0.615794 -20.606375 -2.239342 4.140813 28.073666 12.413524 5.482426 -8.748426 0.000000 0.000000 0.000000 2.372434 1.974221 -3.140201 -5.831496 1.683066 -1.068231 0.267992 -2.959931 5.562947 -0.014564 0.021407 0.052128 0.302815 -2.177500 6.626331 -1.026045 0.629607 -4.642762 0.000000 0.000000 0.000000 1.847515 -1.462003 3.637876 -0.727427 7.169201 -6.326443 -0.289412 -7.527131 -54.469335 -0.314464 -39.516852 -4.596747 0.000000 0.000000 0.000000 -2.138551 -0.322291 3.051164 23.154483 -8.451662 -9.352553 2.312871 -0.567512 -56.164697 0.854177 22.384488 6.279766 0.000000 0.000000 0.000000 
-9.477111 81.000839 -50.564228 179.943506 4.148618 -179.895066 -4.431641 -0.743348 10.122696 -1.985138 2.434548 -23.786001 11.780207 5.673357 33.582158 -0.627219 -8.384049 -10.995545 0.000000 0.000000 0.000000 -1.781852 -0.498492 10.777513 -4.449646 0.501242 -20.644783 -2.231033 4.074955 28.158297 12.365614 5.464181 -8.866415 0.000000 0.000000 0.000000 2.336462 2.016675 -3.118218 -5.814004 1.669636 -1.143758 0.267340 -2.953606 5.573866 0.040826 0.016882 0.030871 0.255440 -2.218868 6.751161 -1.073244 0.568211 -4.485658 0.000000 0.000000 0.000000 1.813824 -1.435317 3.700442 -0.977467 7.194774 -6.322230 -1.271851 -7.114885 -54.260146 -0.137609 -39.805755 -4.696582 0.000000 0.000000 0.000000 -2.157285 -0.263017 3.189200 23.298055 -8.582687 -9.098176 2.741185 -0.540244 -55.996083 0.866013 22.412308 6.091108 0.000000 0.000000 0.000000 
-9.469151 80.983253 -50.640369 179.971919 3.986641 -179.943738 -4.392487 -0.715243 10.229435 -1.937815 2.436504 -23.837989 11.715172 5.633718 33.645689 -0.643189 -8.457125 -11.083111 0.000000 0.000000 0.000000 -1.778166 -0.514580 10.905097 -4.454354 0.557611 -20.635455 -2.126250 4.026331 28.184424 12.230484 5.332107 -9.005674 0.000000 0.000000 0.000000 2.377543 2.074296 -3.044757 -5.738812 1.688452 -1.183383 0.250494 -2.888286 5.616757 -0.050743 0.058399 0.056222 0.360809 -2.053481 6.741531 -1.037853 0.450898 -4.405880 0.000000 0.000000 0.000000 1.926939 -1.464835 3.770956 -1.281477 7.035617 -6.314644 -2.048868 -6.949238 -54.310034 0.070412 -39.923405 -4.832681 0.000000 0.000000 0.000000 -2.078191 -0.287015 3.125039 23.423408 -8.920580 -9.189690 3.146065 -0.624541 -56.192120 1.066047 22.277345 6.236130 0.000000 0.000000 0.000000 
-9.442161 80.974686 -50.692898 -179.977725 3.782937 -179.919586 -4.375959 -0.804208 10.304792 -1.884178 2.435852 -23.913688 11.685641 5.670753 33.712854 -0.675383 -8.546512 -11.123215 0.000000 0.000000 0.000000 -1.833404 -0.606969 10.986006 -4.300685 0.423545 -20.643215 -2.059298 4.114531 28.147635 12.052971 5.273446 -9.045284 0.000000 0.000000 0.000000 2.419776 1.986337 -2.989484 -5.702888 1.589147 -1.276348 0.301646 -2.933327 5.676871 0.019530 -0.013706 0.033555 0.271193 -2.185785 6.822820 -1.081442 0.363429 -4.256287 0.000000 0.000000 0.000000 1.855984 -1.337388 3.765546 -1.501327 7.048747 -6.418996 -2.782447 -6.866317 -54.197490 0.169278 -39.854048 -4.806685 0.000000 0.000000 0.000000 -2.113416 -0.197219 3.276070 23.461437 -9.034265 -9.308720 3.477646 -0.575395 -56.610452 1.215368 21.990699 5.940838 0.000000 0.000000 0.000000 
-9.400901 80.972702 -50.718746 -179.989022 3.691833 -179.944298 -4.362486 -0.847946 10.409848 -1.835354 2.347150 -23.947581 11.654773 5.685851 33.725087 -0.624129 -8.525283 -11.134089 0.000000 0.000000 0.000000 -1.796409 -0.679300 11.069073 -4.332824 0.339005 -20.638515 -1.996797 4.047965 28.100409 12.120405 5.356814 -9.079742 0.000000 0.000000 0.000000 2.457527 2.039897 -2.838498 -5.692349 1.646583 -1.326087 0.341397 -2.808073 5.665727 0.031270 -0.101627 0.042550 0.300651 -2.123147 6.895570 -1.005809 0.197552 -4.185894 0.000000 0.000000 0.000000 1.886270 -1.375509 3.900657 -1.708138 6.772839 -6.393737 -3.360659 -7.005003 -54.001921 0.454807 -39.592527 -4.957120 0.000000 0.000000 0.000000 -2.108545 -0.179209 3.276621 23.620099 -9.221535 -9.184508 3.679672 -0.758472 -57.325033 1.450275 21.729501 5.844138 0.000000 0.000000 0.000000 
